HIERARCHY
ROOT hip
{
  OFFSET 0.0 0.0 0.0
  CHANNELS 6 Xposition Yposition Zposition Zrotation Yrotation Xrotation
  JOINT torso
  {
    OFFSET 0.0 0.0 0.0
    CHANNELS 3 Zrotation Xrotation Yrotation
    JOINT neck
    {
      OFFSET -31.42098999999993 328.8025209999999 74.3554680000002
      CHANNELS 3 Zrotation Xrotation Yrotation
      JOINT head
      {
        OFFSET 3.3519900000001144 303.81732099999994 206.53942900000015
        CHANNELS 3 Zrotation Xrotation Yrotation
        End Site
        {
          OFFSET 0.0 0.0 0.0
        }
      }
    }
    JOINT left_collar
    {
      OFFSET -31.42098999999993 328.8025209999999 74.3554680000002
      CHANNELS 3 Zrotation Xrotation Yrotation
      JOINT left_upper_arm
      {
        OFFSET -124.490479 -8.162841999999841 8.226441000000023
        CHANNELS 3 Zrotation Xrotation Yrotation
        JOINT left_forearm
        {
          OFFSET -253.595764 -1.5758060000000569 105.0729980000001
          CHANNELS 3 Zrotation Xrotation Yrotation
          JOINT left_hand
          {
            OFFSET -269.48803699999996 0.1478270000000066 -55.346191999999974
            CHANNELS 3 Zrotation Xrotation Yrotation
            End Site
            {
              OFFSET 0.0 0.0 0.0
            }
          }
        }
      }
    }
    JOINT right_collar
    {
      OFFSET -31.42098999999993 328.8025209999999 74.3554680000002
      CHANNELS 3 Zrotation Xrotation Yrotation
      JOINT right_upper_arm
      {
        OFFSET 162.02484099999998 0.46441600000002836 2.2303470000001653
        CHANNELS 3 Zrotation Xrotation Yrotation
        JOINT right_forearm
        {
          OFFSET 240.01246700000004 -25.835875999999985 121.34179699999959
          CHANNELS 3 Zrotation Xrotation Yrotation
          JOINT right_hand
          {
            OFFSET 252.48539699999992 18.910399999999868 -67.53466800000001
            CHANNELS 3 Zrotation Xrotation Yrotation
            End Site
            {
              OFFSET 0.0 0.0 0.0
            }
          }
        }
      }
    }
  }
}
MOTION
Frames: 9
Frame Time: 0.01
-236.1168640875813 264.3270755590689 1424.6184157850641 1.6040621024088502 -3.8275550305733668 0.17236595042451264 0.7223289016846687 3.137297703823884 0.15738179202715277 -3.9311056319459414 -1.547773283094204 2.7192148509046974 0.0 0.0 0.0 0.21361827030817188 0.057291407585929356 -0.6398345618261526 51.64037145941658 7.93520760217342 28.4100402583305 42.16815513856961 -4.692034791563017 -11.093332043528145 0.0 0.0 0.0 0.6313047707103946 -0.05977149907346231 6.08777496198826 -45.589111638316 5.149597117849889 -34.22532388055706 -53.83688631142351 -8.940110357635671 13.73782649161105 0.0 0.0 0.0
-236.09051204385284 264.1691281323327 1424.6589475149376 1.7688858326501207 -3.977011420383563 0.37299708215916894 0.6035875711544991 3.2152806733980586 0.1890777627244402 -3.865831614099331 -1.501425907222671 2.672981894063165 0.0 0.0 0.0 0.17917711144702606 0.07112675074729481 -0.8824476197639267 51.67721351525418 7.921199391182271 28.451417366134866 42.05375516392271 -4.678450207115245 -11.092482203773972 0.0 0.0 0.0 0.5208872979952734 -0.05090285186983101 5.890125017447272 -45.54698529088849 5.1534214595179915 -34.201595756795015 -53.8418100456843 -8.912705850479027 13.803825153587509 0.0 0.0 0.0
-236.06607986496718 264.010041419924 1424.700329385164 1.9305851032712726 -4.126761829395676 0.5710059552525448 0.48684727904358727 3.2931766792714576 0.22020823136694753 -3.801528101975228 -1.455231244962577 2.627449112295792 0.0 0.0 0.0 0.14557624968371588 0.08469510250120885 -1.1222409710425991 51.71463310136274 7.904685249210447 28.497961315083387 41.93928644678533 -4.663736901466412 -11.094554632105918 0.0 0.0 0.0 0.4112575113704426 -0.0424938546897429 5.696584354360435 -45.50476256013195 5.156771439809852 -34.17867204850123 -53.84682833422783 -8.885046518301142 13.870448033799832 0.0 0.0 0.0
-236.04496369216974 263.8496832032746 1424.7412963453457 2.086716369106176 -4.275430188360065 0.7639308584085096 0.37364832629543526 3.369584919282694 0.2503326581838646 -3.7393361146000426 -1.4098168994530642 2.583417507362744 0.0 0.0 0.0 0.11338885065833129 0.09777876380515507 -1.355162894271884 51.75208756481508 7.885066688243993 28.550662785772072 41.8261880589514 -4.647765882053226 -11.100363746718173 0.0 0.0 0.0 0.30372947781907667 -0.034627985048049766 5.510431119374525 -45.46267730102193 5.159503732503527 -34.15691278266615 -53.8520838233381 -8.857289146557264 13.9373822325606 0.0 0.0 0.0
-236.02859279524648 263.6877531556996 1424.7805638895134 2.2349991170229453 -4.421747383937915 0.9495028805316826 0.26538699004111854 3.443150278706984 0.27905267385123983 -3.680343084470207 -1.3658198380029152 2.541649826193438 0.0 0.0 0.0 0.08316758340452447 0.11018041958166667 -1.577364074561657 51.78891859821912 7.861771109534563 28.610418921906433 41.71610063217126 -4.630395592061222 -11.11082720476057 0.0 0.0 0.0 0.1995403046720971 -0.027362977703564717 5.334775260186524 -45.42093839099734 5.161471542631139 -34.13667595563129 -53.857709405189254 -8.82958900643224 14.004313785890615 0.0 0.0 0.0
-236.01839105367938 263.5237907438326 1424.816851414851 2.3733821498168544 -4.564593481634935 1.1257116048398597 0.1632733928780058 3.5126099700089854 0.30602350465101935 -3.6255500739750697 -1.323879419967846 2.5028480401201443 0.0 0.0 0.0 0.05542781446960281 0.12172790423879692 -1.7853122336246312 51.82435075030139 7.834276004675666 28.67798649452737 41.61085650460128 -4.611479574576492 -11.126941687544228 0.0 0.0 0.0 0.09981612133971177 -0.020731605428559025 5.172467514270109 -45.37972892980795 5.162527696976196 -34.118311376619054 -53.86382036972555 -8.80209802928665 14.070929068386087 0.0 0.0 0.0
-236.0157368238267 263.35719178648986 1424.8488978468627 2.5000964637223104 -4.703031081782138 1.290856130995331 0.06830041820371589 3.576834573198846 0.3309621086597411 -3.575843961913539 -1.2846327986214585 2.4676344106726993 0.0 0.0 0.0 0.030633058173152105 0.1322773048182546 -1.9758873588025392 51.85749445115289 7.802133556414299 28.753936561296317 41.51246032688004 -4.590875895336925 -11.149749464286444 0.0 0.0 0.0 0.00554357012250427 -0.014743981548054801 5.026022485633107 -45.33920616107967 5.162528015471216 -34.10215423441876 -53.87050735137831 -8.774963162702008 14.13691616525399 0.0 0.0 0.0
-236.0219221151544 263.1872332339725 1424.8754686261802 2.613693239238503 -4.836328121289563 1.443580031340276 -0.018775600632920976 3.634861439299358 0.3536519399831393 -3.531975643324536 -1.2487122707256795 2.4365368164862713 0.0 0.0 0.0 0.009183180791877741 0.1417144506564825 -2.1464540871615267 51.88735450434341 7.764994833637302 28.838612442153615 41.42305910568991 -4.568457903009779 -11.180296252896456 0.0 0.0 0.0 -0.08245196758601706 -0.009390987485607329 4.897558353121301 -45.29950209430832 5.161334826464276 -34.08851864073824 -53.87783062584396 -8.748324980435207 14.20196623660593 0.0 0.0 0.0
-236.03811198662382 263.01310511309083 1424.8953539133677 2.7130666908639816 -4.963969385780994 1.5828901416742953 -0.09744264705092066 3.685919112722924 0.37394452274931606 -3.4945447881481595 -1.2167438329341402 2.4099786625812913 0.0 0.0 0.0 -0.008594427010895507 0.14995495331454975 -2.294909646978948 51.91284486563045 7.722632663635129 28.93209288727676 41.34490098897932 -4.544125778901937 -11.219581542503201 0.0 0.0 0.0 -0.1635206285726503 -0.004648370468713899 4.788754420800931 -45.2607248769088 5.158820474162512 -34.077691460573995 -53.8858162578751 -8.722316599628055 14.26577491169481 0.0 0.0 0.0
